<?xml version="1.0" encoding="utf-8" standalone="no"?>
<!DOCTYPE svg PUBLIC "-//W3C//DTD SVG 1.1//EN"
  "http://www.w3.org/Graphics/SVG/1.1/DTD/svg11.dtd">
<svg xmlns:xlink="http://www.w3.org/1999/xlink" width="237.6pt" height="69.84pt" viewBox="0 0 237.6 69.84" xmlns="http://www.w3.org/2000/svg" version="1.1">
 <metadata>
  <rdf:RDF xmlns:dc="http://purl.org/dc/elements/1.1/" xmlns:cc="http://creativecommons.org/ns#" xmlns:rdf="http://www.w3.org/1999/02/22-rdf-syntax-ns#">
   <cc:Work>
    <dc:type rdf:resource="http://purl.org/dc/dcmitype/StillImage"/>
    <dc:date>2025-12-04T06:42:23.116291</dc:date>
    <dc:format>image/svg+xml</dc:format>
    <dc:creator>
     <cc:Agent>
      <dc:title>Matplotlib v3.6.3, https://matplotlib.org/</dc:title>
     </cc:Agent>
    </dc:creator>
   </cc:Work>
  </rdf:RDF>
 </metadata>
 <defs>
  <style type="text/css">*{stroke-linejoin: round; stroke-linecap: butt}</style>
 </defs>
 <g id="figure_1">
  <g id="patch_1">
   <path d="M 0 69.84 
L 237.6 69.84 
L 237.6 0 
L 0 0 
L 0 69.84 
z
" style="fill: none"/>
  </g>
  <g id="axes_1"/>
  <g id="text_1">
   <!-- $\vec{v}' = \dfrac{m\vec{v} + m_{D}\vec{v}_{D}}{m + m_{D}}$ -->
   <g style="fill: #333333" transform="translate(76.8 38.61) scale(0.1 -0.1)">
    <defs>
     <path id="DejaVuSans-20d7" d="M -3009 4066 
L -3009 4378 
L -694 4378 
L -1106 4863 
L -713 4863 
L -166 4222 
L -713 3581 
L -1106 3581 
L -694 4066 
L -3009 4066 
z
" transform="scale(0.015625)"/>
     <path id="DejaVuSans-Oblique-76" d="M 459 3500 
L 1069 3500 
L 1581 525 
L 3256 3500 
L 3866 3500 
L 1875 0 
L 1100 0 
L 459 3500 
z
" transform="scale(0.015625)"/>
     <path id="Cmsy10-30" d="M 225 347 
Q 184 359 184 409 
L 966 3316 
Q 1003 3434 1093 3506 
Q 1184 3578 1300 3578 
Q 1450 3578 1564 3479 
Q 1678 3381 1678 3231 
Q 1678 3166 1644 3084 
L 488 319 
Q 466 275 428 275 
Q 394 275 320 306 
Q 247 338 225 347 
z
" transform="scale(0.015625)"/>
     <path id="DejaVuSans-3d" d="M 678 2906 
L 4684 2906 
L 4684 2381 
L 678 2381 
L 678 2906 
z
M 678 1631 
L 4684 1631 
L 4684 1100 
L 678 1100 
L 678 1631 
z
" transform="scale(0.015625)"/>
     <path id="DejaVuSans-Oblique-6d" d="M 5747 2113 
L 5338 0 
L 4763 0 
L 5166 2094 
Q 5191 2228 5203 2325 
Q 5216 2422 5216 2491 
Q 5216 2772 5059 2928 
Q 4903 3084 4622 3084 
Q 4203 3084 3875 2770 
Q 3547 2456 3450 1953 
L 3066 0 
L 2491 0 
L 2900 2094 
Q 2925 2209 2937 2307 
Q 2950 2406 2950 2484 
Q 2950 2769 2794 2926 
Q 2638 3084 2363 3084 
Q 1938 3084 1609 2770 
Q 1281 2456 1184 1953 
L 800 0 
L 225 0 
L 909 3500 
L 1484 3500 
L 1375 2956 
Q 1609 3263 1923 3423 
Q 2238 3584 2597 3584 
Q 2978 3584 3223 3384 
Q 3469 3184 3519 2828 
Q 3781 3197 4126 3390 
Q 4472 3584 4856 3584 
Q 5306 3584 5551 3325 
Q 5797 3066 5797 2591 
Q 5797 2488 5784 2364 
Q 5772 2241 5747 2113 
z
" transform="scale(0.015625)"/>
     <path id="DejaVuSans-2b" d="M 2944 4013 
L 2944 2272 
L 4684 2272 
L 4684 1741 
L 2944 1741 
L 2944 0 
L 2419 0 
L 2419 1741 
L 678 1741 
L 678 2272 
L 2419 2272 
L 2419 4013 
L 2944 4013 
z
" transform="scale(0.015625)"/>
     <path id="DejaVuSans-Oblique-44" d="M 1081 4666 
L 2438 4666 
Q 3519 4666 4070 4208 
Q 4622 3750 4622 2847 
Q 4622 2250 4412 1698 
Q 4203 1147 3834 769 
Q 3463 381 2891 190 
Q 2319 0 1538 0 
L 172 0 
L 1081 4666 
z
M 1613 4147 
L 909 519 
L 1734 519 
Q 2794 519 3375 1128 
Q 3956 1738 3956 2847 
Q 3956 3519 3581 3833 
Q 3206 4147 2406 4147 
L 1613 4147 
z
" transform="scale(0.015625)"/>
    </defs>
    <use xlink:href="#DejaVuSans-20d7" transform="translate(61.810547 11.8125)"/>
    <use xlink:href="#DejaVuSans-Oblique-76" transform="translate(0 0.578125)"/>
    <use xlink:href="#Cmsy10-30" transform="translate(60.136719 38.859375) scale(0.7)"/>
    <use xlink:href="#DejaVuSans-3d" transform="translate(101.59668 0.578125)"/>
    <use xlink:href="#DejaVuSans-Oblique-6d" transform="translate(204.868164 60.78125)"/>
    <use xlink:href="#DejaVuSans-20d7" transform="translate(364.09082 72.015625)"/>
    <use xlink:href="#DejaVuSans-Oblique-76" transform="translate(302.280273 60.78125)"/>
    <use xlink:href="#DejaVuSans-2b" transform="translate(380.942383 60.78125)"/>
    <use xlink:href="#DejaVuSans-Oblique-6d" transform="translate(484.213867 60.78125)"/>
    <use xlink:href="#DejaVuSans-Oblique-44" transform="translate(581.625977 44.375) scale(0.7)"/>
    <use xlink:href="#DejaVuSans-20d7" transform="translate(700.072266 72.015625)"/>
    <use xlink:href="#DejaVuSans-Oblique-76" transform="translate(638.261719 60.78125)"/>
    <use xlink:href="#DejaVuSans-Oblique-44" transform="translate(698.398438 44.375) scale(0.7)"/>
    <use xlink:href="#DejaVuSans-Oblique-6d" transform="translate(292.868164 -49.578125)"/>
    <use xlink:href="#DejaVuSans-2b" transform="translate(409.762695 -49.578125)"/>
    <use xlink:href="#DejaVuSans-Oblique-6d" transform="translate(513.03418 -49.578125)"/>
    <use xlink:href="#DejaVuSans-Oblique-44" transform="translate(610.446289 -65.984375) scale(0.7)"/>
    <path d="M 204.868164 19.375 
L 204.868164 25.625 
L 755.03418 25.625 
L 755.03418 19.375 
L 204.868164 19.375 
z
"/>
   </g>
  </g>
 </g>
</svg>
